<?xml version="1.0" encoding="UTF-8" standalone="no"?>
<!DOCTYPE svg PUBLIC "-//W3C//DTD SVG 1.1//EN"
 "http://www.w3.org/Graphics/SVG/1.1/DTD/svg11.dtd">
<!-- Generated by graphviz version 2.47.0 (20210316.0004)
 -->
<!-- Title: dependencies Pages: 1 -->
<svg width="504pt" height="287pt"
 viewBox="0.00 0.00 504.00 287.00" xmlns="http://www.w3.org/2000/svg" xmlns:xlink="http://www.w3.org/1999/xlink">
<g id="graph0" class="graph" transform="scale(1 1) rotate(0) translate(4 283)">
<title>dependencies</title>
<polygon fill="white" stroke="transparent" points="-4,4 -4,-283 500,-283 500,4 -4,4"/>
<text text-anchor="start" x="227.01" y="-42.4" font-family="Times-12" font-weight="bold" font-size="14.00">Legend</text>
<polygon fill="#ffffb3" stroke="transparent" points="14,-10 14,-30 34,-30 34,-10 14,-10"/>
<text text-anchor="start" x="37.63" y="-15.4" font-family="Times-12" font-size="14.00"> &#160;Declarations</text>
<polygon fill="#8dd3c7" stroke="transparent" points="127,-10 127,-30 147,-30 147,-10 127,-10"/>
<text text-anchor="start" x="150.73" y="-15.4" font-family="Times-12" font-size="14.00"> &#160;Module</text>
<polygon fill="#80b1d3" stroke="transparent" points="213,-10 213,-30 233,-30 233,-10 213,-10"/>
<text text-anchor="start" x="236.78" y="-15.4" font-family="Times-12" font-size="14.00"> &#160;Bootstrap</text>
<polygon fill="#fdb462" stroke="transparent" points="310,-10 310,-30 330,-30 330,-10 310,-10"/>
<text text-anchor="start" x="333.67" y="-15.4" font-family="Times-12" font-size="14.00"> &#160;Providers</text>
<polygon fill="#fb8072" stroke="transparent" points="406,-10 406,-30 426,-30 426,-10 406,-10"/>
<text text-anchor="start" x="429.73" y="-15.4" font-family="Times-12" font-size="14.00"> &#160;Exports</text>
<g id="clust1" class="cluster">
<title>cluster_AppModule</title>
<polygon fill="none" stroke="black" stroke-dasharray="1,5" points="72.5,-146 72.5,-271 442.5,-271 442.5,-146 72.5,-146"/>
</g>
<g id="clust3" class="cluster">
<title>cluster_AppModule_imports</title>
<polygon fill="none" stroke="black" points="80.5,-154 80.5,-206 434.5,-206 434.5,-154 80.5,-154"/>
</g>
<g id="clust19" class="cluster">
<title>cluster_ProjectsModule</title>
<polygon fill="none" stroke="black" stroke-dasharray="1,5" points="53.5,-70 53.5,-138 227.5,-138 227.5,-70 53.5,-70"/>
</g>
<g id="clust24" class="cluster">
<title>cluster_ProjectsModule_providers</title>
<polygon fill="none" stroke="black" points="61.5,-78 61.5,-130 219.5,-130 219.5,-78 61.5,-78"/>
</g>
<!-- BaseModule -->
<g id="node1" class="node">
<title>BaseModule</title>
<polygon fill="#8dd3c7" stroke="black" points="426.76,-198 423.76,-202 402.76,-202 399.76,-198 340.24,-198 340.24,-162 426.76,-162 426.76,-198"/>
<text text-anchor="middle" x="383.5" y="-175.8" font-family="Times,serif" font-size="14.00">BaseModule</text>
</g>
<!-- AppModule -->
<g id="node4" class="node">
<title>AppModule</title>
<polygon fill="#8dd3c7" stroke="black" points="308.16,-263 305.16,-267 284.16,-267 281.16,-263 224.84,-263 224.84,-227 308.16,-227 308.16,-263"/>
<text text-anchor="middle" x="266.5" y="-240.8" font-family="Times,serif" font-size="14.00">AppModule</text>
</g>
<!-- BaseModule&#45;&gt;AppModule -->
<g id="edge1" class="edge">
<title>BaseModule&#45;&gt;AppModule</title>
<path fill="none" stroke="black" d="M383.5,-198.11C383.5,-217.34 383.5,-245 383.5,-245 383.5,-245 318.41,-245 318.41,-245"/>
<polygon fill="black" stroke="black" points="318.41,-241.5 308.41,-245 318.41,-248.5 318.41,-241.5"/>
</g>
<!-- CommonModule -->
<g id="node2" class="node">
<title>CommonModule</title>
<polygon fill="#8dd3c7" stroke="black" points="322.17,-198 319.17,-202 298.17,-202 295.17,-198 210.83,-198 210.83,-162 322.17,-162 322.17,-198"/>
<text text-anchor="middle" x="266.5" y="-175.8" font-family="Times,serif" font-size="14.00">CommonModule</text>
</g>
<!-- CommonModule&#45;&gt;AppModule -->
<g id="edge2" class="edge">
<title>CommonModule&#45;&gt;AppModule</title>
<path fill="none" stroke="black" d="M266.5,-198.11C266.5,-198.11 266.5,-216.99 266.5,-216.99"/>
<polygon fill="black" stroke="black" points="263,-216.99 266.5,-226.99 270,-216.99 263,-216.99"/>
</g>
<!-- ProjectsModule -->
<g id="node3" class="node">
<title>ProjectsModule</title>
<polygon fill="#8dd3c7" stroke="black" points="192.65,-198 189.65,-202 168.65,-202 165.65,-198 88.35,-198 88.35,-162 192.65,-162 192.65,-198"/>
<text text-anchor="middle" x="140.5" y="-175.8" font-family="Times,serif" font-size="14.00">ProjectsModule</text>
</g>
<!-- ProjectsModule&#45;&gt;AppModule -->
<g id="edge3" class="edge">
<title>ProjectsModule&#45;&gt;AppModule</title>
<path fill="none" stroke="black" d="M140.5,-198.11C140.5,-217.34 140.5,-245 140.5,-245 140.5,-245 214.54,-245 214.54,-245"/>
<polygon fill="black" stroke="black" points="214.54,-248.5 224.54,-245 214.54,-241.5 214.54,-248.5"/>
</g>
<!-- ProjectsService -->
<g id="node5" class="node">
<title>ProjectsService</title>
<ellipse fill="#fdb462" stroke="black" cx="140.5" cy="-104" rx="71.2" ry="18"/>
<text text-anchor="middle" x="140.5" y="-99.8" font-family="Times,serif" font-size="14.00">ProjectsService</text>
</g>
<!-- ProjectsService&#45;&gt;ProjectsModule -->
<g id="edge4" class="edge">
<title>ProjectsService&#45;&gt;ProjectsModule</title>
<path fill="none" stroke="black" d="M140.5,-122.01C140.5,-122.01 140.5,-151.85 140.5,-151.85"/>
<polygon fill="black" stroke="black" points="137,-151.85 140.5,-161.85 144,-151.85 137,-151.85"/>
</g>
</g>
</svg>
